<?xml version="1.0" encoding="UTF-8"?>
<!DOCTYPE svg PUBLIC "-//W3C//DTD SVG 1.1//EN" "http://www.w3.org/Graphics/SVG/1.1/DTD/svg11.dtd">
<!-- Creator: CorelDRAW X6 -->
<svg xmlns="http://www.w3.org/2000/svg" xml:space="preserve" width="9.70833in" height="20.8333in" version="1.1" style="shape-rendering:geometricPrecision; text-rendering:geometricPrecision; image-rendering:optimizeQuality; fill-rule:evenodd; clip-rule:evenodd"
viewBox="0 0 9708 20833"
 xmlns:xlink="http://www.w3.org/1999/xlink">
 <defs>
  <style type="text/css">
   <![CDATA[
    .fil1 {fill:#C48154;fill-rule:nonzero}
    .fil0 {fill:#EE7CA6;fill-rule:nonzero}
   ]]>
  </style>
 </defs>
 <g id="Layer_x0020_1">
  <metadata id="CorelCorpID_0Corel-Layer"/>
  <path class="fil0" d="M9606 6415c-140,-319 -640,-762 -644,-1135 -2,-145 65,-1099 65,-1241 0,-2230 -1859,-4037 -4153,-4039l-5 0c-2294,1 -4153,1809 -4153,4038 0,247 123,991 -22,1262 -181,339 -456,511 -582,899 -65,201 -112,398 -111,582 1,269 102,511 393,696 245,155 702,298 1097,80 392,-216 577,-471 885,-471 461,0 655,809 1305,809 649,0 844,-557 1310,-557 465,0 725,799 1180,799 455,0 687,-695 903,-751 753,-196 1056,499 1608,425 648,-87 1288,-576 926,-1397z"/>
  <path class="fil1" d="M7358 8005c-10,13 -20,27 -29,39 -192,260 -551,745 -1160,745 -516,0 -848,-368 -1067,-612 -43,-48 -101,-142 -147,-142 -46,0 -80,42 -115,69 -236,176 -592,443 -1160,443 -639,0 -1022,-418 -1251,-668 -28,-30 -49,-84 -92,-84 -43,0 -79,35 -112,59 -110,79 -247,178 -420,274 -53,29 -107,54 -162,76l2874 12043c93,390 216,585 339,585 123,0 246,-195 339,-585l2841 -11906c-128,-57 -241,-123 -337,-181 -154,-92 -287,-209 -340,-157z"/>
 </g>
</svg>
